<?xml version="1.0" encoding="UTF-8" standalone="no"?><!-- Generator: Gravit.io --><svg xmlns="http://www.w3.org/2000/svg" xmlns:xlink="http://www.w3.org/1999/xlink" style="isolation:isolate" viewBox="0 0 100 100" width="100pt" height="100pt"><defs><clipPath id="_clipPath_wMFKo64GsoDOLBhM41G9P9kH7N6QTFSR"><rect width="100" height="100"/></clipPath></defs><g clip-path="url(#_clipPath_wMFKo64GsoDOLBhM41G9P9kH7N6QTFSR)"><path d="M 8.287 0 L 91.713 0 C 96.287 0 100 3.713 100 8.287 L 100 91.713 C 100 96.287 96.287 100 91.713 100 L 8.287 100 C 3.713 100 0 96.287 0 91.713 L 0 8.287 C 0 3.713 3.713 0 8.287 0 Z" style="stroke:none;fill:#F44336;stroke-miterlimit:10;"/><path d="M 11.3 22 L 88.7 22 C 92.453 22 95.5 25.047 95.5 28.8 L 95.5 89.2 C 95.5 92.953 92.453 96 88.7 96 L 11.3 96 C 7.547 96 4.5 92.953 4.5 89.2 L 4.5 28.8 C 4.5 25.047 7.547 22 11.3 22 Z" style="stroke:none;fill:#FFFFFF;stroke-miterlimit:10;"/><path d=" M 39.917 43.789 L 49.101 69.988 L 47.584 68.635 L 51.11 69.783 L 51.11 72.735 L 39.343 72.735 L 39.343 69.783 L 42.91 68.758 L 42.336 69.578 L 40.696 64.248 L 41.598 64.986 L 30.774 64.986 L 31.471 64.289 L 29.708 69.496 L 29.544 68.881 L 32.824 69.783 L 32.824 72.735 L 22.123 72.735 L 22.123 69.783 L 25.526 68.717 L 24.214 69.865 L 33.89 43.953 L 39.917 43.789 L 39.917 43.789 Z  M 37.17 47.028 L 32.25 61.706 L 31.84 60.927 L 40.655 60.927 L 40.081 61.829 L 35.817 47.028 L 37.17 47.028 L 37.17 47.028 Z  M 61.36 73.227 L 61.36 73.227 L 61.36 73.227 Q 59.761 73.227 57.916 73.022 L 57.916 73.022 L 57.916 73.022 Q 56.071 72.817 53.939 72.407 L 53.939 72.407 L 53.939 43.625 L 54.841 45.183 L 51.192 44.117 L 51.192 41.165 L 59.679 40.837 L 59.679 54.367 L 58.982 53.506 L 58.982 53.506 Q 60.458 52.03 62.221 51.189 L 62.221 51.189 L 62.221 51.189 Q 63.984 50.349 65.952 50.349 L 65.952 50.349 L 65.952 50.349 Q 68.33 50.349 70.134 51.599 L 70.134 51.599 L 70.134 51.599 Q 71.938 52.85 72.983 55.31 L 72.983 55.31 L 72.983 55.31 Q 74.029 57.77 74.029 61.378 L 74.029 61.378 L 74.029 61.378 Q 74.029 63.961 73.393 66.113 L 73.393 66.113 L 73.393 66.113 Q 72.758 68.266 71.302 69.865 L 71.302 69.865 L 71.302 69.865 Q 69.847 71.464 67.407 72.345 L 67.407 72.345 L 67.407 72.345 Q 64.968 73.227 61.36 73.227 Z  M 62.385 69.127 L 62.385 69.127 L 62.385 69.127 Q 65.337 69.127 66.69 67.2 L 66.69 67.2 L 66.69 67.2 Q 68.043 65.273 68.043 61.829 L 68.043 61.829 L 68.043 61.829 Q 68.043 59.574 67.51 57.954 L 67.51 57.954 L 67.51 57.954 Q 66.977 56.335 66.034 55.453 L 66.034 55.453 L 66.034 55.453 Q 65.091 54.572 63.697 54.572 L 63.697 54.572 L 63.697 54.572 Q 62.631 54.572 61.442 55.146 L 61.442 55.146 L 61.442 55.146 Q 60.253 55.72 58.982 56.909 L 58.982 56.909 L 59.679 55.146 L 59.679 70.029 L 58.982 68.635 L 58.982 68.635 Q 60.909 69.127 62.385 69.127 Z " fill="rgb(66,66,66)"/></g></svg>